<mxfile host="app.diagrams.net" modified="2024-02-23T17:31:26.917Z" agent="Mozilla/5.0 (X11; Linux x86_64) AppleWebKit/537.36 (KHTML, like Gecko) Chrome/121.0.0.0 Safari/537.36" version="23.1.5" etag="T56ZaoTOIca-q0cu639Y" type="github">
  <diagram name="Page-1" id="HOTFe_kulU2XWzZXE1h2">
    <mxGraphModel>
      <root>
        <mxCell id="0" />
        <mxCell id="1" parent="0" />
      </root>
    </mxGraphModel>
  </diagram>
</mxfile>
